<svg viewBox="0 0 246 43" xmlns="http://www.w3.org/2000/svg" data-logo="logo">
        <g transform="translate(0, 1) rotate(0)" id="logogram" style="opacity: 1;"><path fill="#D41C1C" d="M17.3991 3.08704L20.0562 0.429993L40.0562 20.43L20.0562 40.43L17.3991 37.7729L34.742 20.43L17.3991 3.08704Z"></path><path fill="#D41C1C" d="M13.9305 6.55563L16.5876 3.89858L33.119 20.43L16.5876 36.9614L13.9305 34.3044L27.8049 20.43L13.9305 6.55563Z"></path><path fill="#D41C1C" d="M0.0561537 20.43L13.119 7.36717L26.1818 20.43L13.119 33.4928L10.4619 30.8357L20.8677 20.43L13.119 12.6813L2.7132 23.087L0.0561537 20.43Z"></path><path fill="#D41C1C" d="M13.119 14.3044L10.4619 16.9614L13.9305 20.43L6.99333 27.3672L9.65037 30.0242L19.2446 20.43L13.119 14.3044Z"></path><path fill="#D41C1C" d="M6.1818 26.5556L3.52474 23.8986L9.62258 17.8007L12.2796 20.4578L6.1818 26.5556Z"></path></g>
        <g transform="translate(47, 8)" id="logotype" style="opacity: 1;"><path d="M13.52 27L8.31 27L8.31 1.54L18.24 1.54Q21.14 1.54 23.18 2.64Q25.21 3.74 26.28 5.68Q27.35 7.62 27.35 10.13L27.35 10.13Q27.35 12.66 26.26 14.58Q25.17 16.51 23.12 17.59Q21.06 18.68 18.12 18.68L18.12 18.68L11.73 18.68L11.73 14.47L17.28 14.47Q18.89 14.47 19.92 13.92Q20.95 13.36 21.46 12.39Q21.96 11.41 21.96 10.13L21.96 10.13Q21.96 8.85 21.46 7.88Q20.95 6.90 19.91 6.37Q18.87 5.84 17.26 5.84L17.26 5.84L13.52 5.84L13.52 27ZM33.92 27.38L33.92 27.38Q32.11 27.38 30.67 26.74Q29.22 26.09 28.39 24.82Q27.57 23.55 27.57 21.65L27.57 21.65Q27.57 20.06 28.15 18.98Q28.74 17.91 29.76 17.26Q30.78 16.61 32.07 16.27Q33.36 15.93 34.78 15.79L34.78 15.79Q36.43 15.62 37.45 15.47Q38.47 15.33 38.94 15.01Q39.41 14.70 39.41 14.08L39.41 14.08L39.41 13.99Q39.41 13.17 39.07 12.61Q38.73 12.05 38.06 11.75Q37.39 11.45 36.42 11.45L36.42 11.45Q35.43 11.45 34.69 11.75Q33.96 12.05 33.50 12.54Q33.03 13.04 32.81 13.65L32.81 13.65L28.11 12.87Q28.61 11.21 29.75 10.05Q30.90 8.88 32.60 8.27Q34.30 7.65 36.42 7.65L36.42 7.65Q37.97 7.65 39.43 8.02Q40.88 8.39 42.03 9.16Q43.19 9.93 43.86 11.16Q44.54 12.39 44.54 14.13L44.54 14.13L44.54 27L39.68 27L39.68 24.35L39.51 24.35Q39.05 25.24 38.28 25.91Q37.51 26.59 36.43 26.98Q35.34 27.38 33.92 27.38ZM35.38 23.77L35.38 23.77Q36.59 23.77 37.50 23.29Q38.42 22.81 38.93 21.99Q39.44 21.17 39.44 20.16L39.44 20.16L39.44 18.10Q39.22 18.27 38.76 18.40Q38.30 18.54 37.73 18.64Q37.17 18.75 36.62 18.83Q36.08 18.92 35.65 18.97L35.65 18.97Q34.71 19.10 33.99 19.41Q33.27 19.72 32.88 20.22Q32.49 20.73 32.49 21.51L32.49 21.51Q32.49 22.25 32.86 22.75Q33.24 23.26 33.88 23.51Q34.52 23.77 35.38 23.77ZM44.79 7.89L56.12 7.89L56.12 11.81L44.79 11.81L44.79 7.89ZM47.42 21.86L47.42 3.35L52.55 3.35L52.55 21.41Q52.55 22.32 52.95 22.75Q53.35 23.19 54.29 23.19L54.29 23.19Q54.58 23.19 55.11 23.11Q55.64 23.04 55.92 22.97L55.92 22.97L56.65 26.81Q55.80 27.07 54.95 27.17Q54.10 27.27 53.33 27.27L53.33 27.27Q50.46 27.27 48.94 25.87Q47.42 24.47 47.42 21.86L47.42 21.86ZM62.30 15.94L62.30 15.94L62.30 27L57.18 27L57.18 1.54L62.20 1.54L62.20 12.66L61.79 12.66Q62.54 10.27 64.07 8.96Q65.60 7.65 68.03 7.65L68.03 7.65Q70.01 7.65 71.49 8.52Q72.97 9.38 73.78 11.00Q74.59 12.61 74.59 14.85L74.59 14.85L74.59 27L69.47 27L69.47 15.74Q69.47 13.96 68.55 12.95Q67.64 11.94 66.01 11.94L66.01 11.94Q64.94 11.94 64.09 12.41Q63.24 12.88 62.77 13.77Q62.30 14.66 62.30 15.94ZM74.85 7.89L87.32 7.89L87.32 11.81L74.85 11.81L74.85 7.89ZM83.32 27L78.21 27L78.21 6.42Q78.21 4.39 79.03 3.04Q79.84 1.69 81.24 1.01Q82.64 0.34 84.42 0.34L84.42 0.34Q85.63 0.34 86.63 0.54Q87.63 0.73 88.09 0.87L88.09 0.87L87.17 4.73Q86.84 4.65 86.41 4.56Q85.97 4.48 85.46 4.48L85.46 4.48Q84.30 4.48 83.81 5.03Q83.32 5.59 83.32 6.59L83.32 6.59L83.32 27ZM93.47 27L88.35 27L88.35 7.89L93.47 7.89L93.47 27ZM90.91 5.40L90.91 5.40Q89.75 5.40 88.93 4.63Q88.11 3.86 88.11 2.77L88.11 2.77Q88.11 1.67 88.93 0.90Q89.75 0.13 90.91 0.13L90.91 0.13Q92.07 0.13 92.90 0.90Q93.73 1.66 93.73 2.77L93.73 2.77Q93.73 3.86 92.90 4.63Q92.07 5.40 90.91 5.40ZM100.68 15.94L100.68 15.94L100.68 27L95.56 27L95.56 7.89L100.39 7.89L100.48 12.66L100.17 12.66Q100.92 10.27 102.45 8.96Q103.98 7.65 106.41 7.65L106.41 7.65Q108.39 7.65 109.86 8.52Q111.33 9.38 112.15 11.00Q112.97 12.61 112.97 14.85L112.97 14.85L112.97 27L107.84 27L107.84 15.74Q107.84 13.96 106.93 12.95Q106.01 11.94 104.39 11.94L104.39 11.94Q103.31 11.94 102.47 12.41Q101.62 12.88 101.15 13.77Q100.68 14.66 100.68 15.94ZM122.06 27.32L122.06 27.32Q119.86 27.32 118.09 26.19Q116.32 25.05 115.29 22.86Q114.27 20.66 114.27 17.48L114.27 17.48Q114.27 14.22 115.33 12.03Q116.39 9.84 118.15 8.75Q119.91 7.65 122.03 7.65L122.03 7.65Q123.65 7.65 124.73 8.20Q125.80 8.75 126.47 9.55Q127.14 10.35 127.46 11.11L127.46 11.11L127.63 11.11L127.63 1.54L132.76 1.54L132.76 27L127.72 27L127.72 23.94L127.46 23.94Q127.12 24.71 126.44 25.49Q125.77 26.27 124.69 26.79Q123.62 27.32 122.06 27.32ZM123.63 23.21L123.63 23.21Q124.93 23.21 125.85 22.49Q126.78 21.77 127.26 20.48Q127.73 19.19 127.73 17.46L127.73 17.46Q127.73 15.72 127.26 14.45Q126.79 13.17 125.87 12.47Q124.95 11.76 123.63 11.76L123.63 11.76Q122.28 11.76 121.37 12.49Q120.45 13.23 119.99 14.51Q119.53 15.79 119.53 17.46L119.53 17.46Q119.53 19.14 120.00 20.44Q120.47 21.74 121.38 22.47Q122.30 23.21 123.63 23.21ZM143.49 27.38L143.49 27.38Q140.57 27.38 138.45 26.18Q136.33 24.98 135.19 22.78Q134.05 20.57 134.05 17.55L134.05 17.55Q134.05 14.59 135.18 12.37Q136.31 10.15 138.38 8.90Q140.45 7.65 143.23 7.65L143.23 7.65Q145.11 7.65 146.74 8.25Q148.36 8.85 149.59 10.06Q150.82 11.26 151.51 13.07Q152.20 14.88 152.20 17.34L152.20 17.34L152.20 18.78L136.16 18.78L136.16 15.57L149.69 15.57L147.30 16.42Q147.30 14.93 146.85 13.83Q146.39 12.73 145.50 12.12Q144.60 11.52 143.27 11.52L143.27 11.52Q141.95 11.52 141.02 12.13Q140.09 12.75 139.61 13.80Q139.13 14.85 139.13 16.20L139.13 16.20L139.13 18.47Q139.13 20.13 139.69 21.26Q140.24 22.39 141.24 22.95Q142.24 23.51 143.57 23.51L143.57 23.51Q144.48 23.51 145.21 23.26Q145.95 23.00 146.47 22.50Q146.99 21.99 147.27 21.26L147.27 21.26L151.91 22.13Q151.45 23.70 150.31 24.89Q149.16 26.08 147.44 26.73Q145.73 27.38 143.49 27.38ZM158.56 27L153.43 27L153.43 7.89L158.39 7.89L158.39 11.23L158.59 11.23Q159.12 9.45 160.36 8.54Q161.60 7.64 163.21 7.64L163.21 7.64Q163.60 7.64 164.05 7.68Q164.51 7.72 164.87 7.81L164.87 7.81L164.87 12.39Q164.52 12.27 163.87 12.20Q163.23 12.13 162.64 12.13L162.64 12.13Q161.48 12.13 160.54 12.64Q159.60 13.14 159.08 14.04Q158.56 14.93 158.56 16.13L158.56 16.13L158.56 27ZM169.07 27.32L169.07 27.32Q167.82 27.32 166.97 26.48Q166.11 25.63 166.11 24.39L166.11 24.39Q166.11 23.14 166.97 22.30Q167.82 21.46 169.07 21.46L169.07 21.46Q170.32 21.46 171.17 22.30Q172.02 23.14 172.02 24.39L172.02 24.39Q172.02 25.63 171.17 26.48Q170.32 27.32 169.07 27.32ZM180.16 27.38L180.16 27.38Q178.35 27.38 176.90 26.74Q175.46 26.09 174.63 24.82Q173.80 23.55 173.80 21.65L173.80 21.65Q173.80 20.06 174.39 18.98Q174.98 17.91 176.00 17.26Q177.01 16.61 178.30 16.27Q179.59 15.93 181.01 15.79L181.01 15.79Q182.67 15.62 183.69 15.47Q184.70 15.33 185.17 15.01Q185.64 14.70 185.64 14.08L185.64 14.08L185.64 13.99Q185.64 13.17 185.30 12.61Q184.96 12.05 184.29 11.75Q183.63 11.45 182.65 11.45L182.65 11.45Q181.66 11.45 180.93 11.75Q180.19 12.05 179.73 12.54Q179.27 13.04 179.05 13.65L179.05 13.65L174.35 12.87Q174.84 11.21 175.99 10.05Q177.13 8.88 178.83 8.27Q180.53 7.65 182.65 7.65L182.65 7.65Q184.21 7.65 185.66 8.02Q187.11 8.39 188.27 9.16Q189.42 9.93 190.09 11.16Q190.77 12.39 190.77 14.13L190.77 14.13L190.77 27L185.92 27L185.92 24.35L185.75 24.35Q185.28 25.24 184.52 25.91Q183.75 26.59 182.66 26.98Q181.58 27.38 180.16 27.38ZM181.61 23.77L181.61 23.77Q182.82 23.77 183.74 23.29Q184.65 22.81 185.16 21.99Q185.68 21.17 185.68 20.16L185.68 20.16L185.68 18.10Q185.45 18.27 184.99 18.40Q184.53 18.54 183.97 18.64Q183.40 18.75 182.86 18.83Q182.31 18.92 181.88 18.97L181.88 18.97Q180.94 19.10 180.23 19.41Q179.51 19.72 179.11 20.22Q178.72 20.73 178.72 21.51L178.72 21.51Q178.72 22.25 179.10 22.75Q179.47 23.26 180.11 23.51Q180.76 23.77 181.61 23.77ZM198.00 27L192.87 27L192.87 7.89L198.00 7.89L198.00 27ZM195.43 5.40L195.43 5.40Q194.27 5.40 193.45 4.63Q192.63 3.86 192.63 2.77L192.63 2.77Q192.63 1.67 193.45 0.90Q194.27 0.13 195.43 0.13L195.43 0.13Q196.60 0.13 197.42 0.90Q198.25 1.66 198.25 2.77L198.25 2.77Q198.25 3.86 197.42 4.63Q196.60 5.40 195.43 5.40Z" fill="#000000"></path></g>
        
      </svg>